PathFileType	3	(X/Y/Z)	RCH0000002 BBF 14.c3d
DataRate	CameraRate	NumFrames	NumMarkers	Units	OrigDataRate	OrigDataStartFrame	OrigNumFrames
100.0	100.0	10	23	mm	100.0	146	502
Frame#	Time	RASI			LPAT			LKNE			LANK			LMED			LHEE			RPAT			RKNE			RANK			RMED			RHEE			RTOE			LTOE			MAN			LASI			T2			T10			LPSI			RPSI			RTHI			LTHI			RTIB			LTIB			
		X1	Y1	Z1	X2	Y2	Z2	X3	Y3	Z3	X4	Y4	Z4	X5	Y5	Z5	X6	Y6	Z6	X7	Y7	Z7	X8	Y8	Z8	X9	Y9	Z9	X10	Y10	Z10	X11	Y11	Z11	X12	Y12	Z12	X13	Y13	Z13	X14	Y14	Z14	X15	Y15	Z15	X16	Y16	Z16	X17	Y17	Z17	X18	Y18	Z18	X19	Y19	Z19	X20	Y20	Z20	X21	Y21	Z21	X22	Y22	Z22	X23	Y23	Z23	

146	1.450	-1659.54250	-215.41621	647.06630	-1680.33453	-92.52375	381.44905	-1727.45256	-37.21917	340.33852	-1787.49710	-41.32525	70.74893	-1780.13650	-109.86044	89.06858	-1823.65300	-83.00376	103.13620	-1654.65951	-168.74532	352.90340	-1708.49640	-222.86993	331.53069	-1895.48739	-251.25922	137.72351	-1900.96373	-182.83900	149.58655	-1911.88113	-219.15618	189.69850	-1873.92858	-214.83229	97.14233	-1735.12907	-73.50144	67.42435	-1651.57714	-71.49766	954.78476	-1696.33240	-42.78990	647.57285	-1783.92686	-109.67186	976.34985	-1760.61058	-138.89996	793.34806	-1789.49467	-115.72774	704.87344	-1774.04261	-185.13995	705.25394	-1680.46158	-292.27466	439.76410	-1741.70282	33.64289	463.89490	-1782.14852	-300.59664	255.54796	-1759.40683	24.56099	226.10422	
147	1.460	-1649.06551	-212.70341	649.55487	-1679.03142	-91.41280	381.68854	-1727.64133	-36.64696	341.33626	-1788.07040	-42.86110	71.79657	-1779.06266	-111.14986	90.09855	-1823.30640	-85.15729	104.39868	-1634.76189	-166.87009	358.25758	-1687.83265	-221.42624	335.22192	-1871.90987	-251.13435	139.37280	-1877.67534	-182.56418	150.50076	-1889.76851	-218.61319	190.53179	-1848.46285	-215.14353	99.65269	-1734.98019	-73.96366	67.98074	-1641.75746	-71.83806	957.27848	-1689.18455	-40.86624	649.48903	-1773.86158	-110.07334	979.23879	-1751.47819	-138.25644	795.84104	-1780.60587	-115.61550	707.20000	-1764.14437	-184.65151	707.55418	-1663.31214	-290.77470	444.30229	-1739.65716	34.29819	465.13482	-1760.26961	-299.56537	259.02708	-1761.73749	24.12536	226.95822	
148	1.470	-1638.77085	-210.10201	651.81249	-1677.38473	-90.32480	381.82204	-1727.43415	-36.14770	342.25229	-1788.45446	-44.15251	72.83319	-1777.92370	-112.22125	91.12136	-1822.79231	-87.00944	105.67927	-1614.81550	-165.17298	363.83429	-1667.06336	-220.08359	339.06908	-1847.46473	-250.77737	140.41052	-1853.59516	-182.10015	150.96698	-1866.90542	-217.97648	190.76531	-1822.17727	-215.08342	101.75076	-1734.72417	-74.29162	68.48959	-1631.90179	-72.20332	959.34525	-1682.08473	-39.07934	651.10612	-1763.78967	-110.25918	981.83322	-1742.54281	-137.53332	797.99950	-1771.85422	-115.56801	709.09740	-1754.42803	-184.20337	709.47109	-1646.23443	-289.38764	448.90291	-1737.41177	34.83694	466.25813	-1737.99643	-298.51921	262.17569	-1763.56269	23.73213	227.83193	
149	1.480	-1628.64433	-207.63308	653.75624	-1675.37919	-89.18251	381.82809	-1726.81417	-35.62872	343.07683	-1788.63902	-45.09998	73.82582	-1776.75274	-112.97548	92.12832	-1822.12197	-88.43266	106.95565	-1594.87497	-163.64590	369.55770	-1646.23398	-218.82369	343.00667	-1822.19239	-250.16428	140.85466	-1828.74502	-181.41025	150.98490	-1843.30529	-217.20100	190.40114	-1795.13487	-214.63979	103.43306	-1734.36387	-74.41733	68.93845	-1621.97949	-72.58980	960.93181	-1675.00855	-37.43393	652.42407	-1753.68182	-110.25102	984.08377	-1733.76709	-136.78736	799.79535	-1763.22975	-115.61609	710.54876	-1744.88538	-183.83481	710.95223	-1629.24745	-288.09986	453.47781	-1734.93475	35.32684	467.27386	-1715.37285	-297.44226	264.96807	-1764.82051	23.49364	228.69550	
150	1.490	-1618.67254	-205.31754	655.32259	-1673.02558	-87.94177	381.69155	-1725.78530	-35.02071	343.80438	-1788.63066	-45.64725	74.74625	-1775.58156	-113.35418	93.10780	-1821.31878	-89.35201	108.20581	-1575.01289	-162.26383	375.36296	-1625.40540	-217.61614	346.97716	-1796.13862	-249.27938	140.74788	-1803.15479	-180.46661	150.56861	-1818.99569	-216.24828	189.45788	-1767.39172	-213.81313	104.71954	-1733.90829	-74.30117	69.31842	-1611.96402	-72.99872	962.00446	-1667.92313	-35.93291	653.45277	-1743.51042	-110.08373	985.95640	-1725.11283	-136.07128	801.21447	-1754.71455	-115.77675	711.55218	-1735.50511	-183.57252	711.96174	-1612.38429	-286.89039	457.94666	-1732.18889	35.82453	468.18926	-1692.45119	-296.31392	267.40511	-1765.49270	23.48888	229.52154	
151	1.500	-1608.84082	-203.17612	656.46833	-1670.35221	-86.58938	381.40469	-1724.36539	-34.27987	344.43397	-1788.44959	-45.77966	75.57424	-1774.43814	-113.33854	94.04786	-1820.41468	-89.74383	109.41183	-1555.31970	-160.98514	381.19208	-1604.65439	-216.41850	350.92790	-1769.35417	-248.11503	140.14946	-1776.86514	-179.25223	149.74184	-1794.01686	-215.09079	187.96571	-1739.00251	-212.61284	105.64576	-1733.37159	-73.93142	69.62490	-1601.83339	-73.43538	962.54921	-1660.78624	-34.57762	654.20969	-1733.25041	-109.80198	987.43141	-1716.54092	-135.43135	802.25483	-1746.28179	-116.05319	712.11841	-1726.27119	-183.43012	712.47971	-1595.69314	-285.73176	462.23452	-1729.13068	36.37368	469.00858	-1669.28996	-295.10843	269.50667	-1765.59829	23.76128	230.28787	
152	1.510	-1599.13104	-201.22826	657.16983	-1667.39511	-85.13699	380.96721	-1722.57853	-33.38673	344.96899	-1788.12476	-45.51800	76.29960	-1773.34417	-112.94384	94.93877	-1819.44494	-89.62876	110.56269	-1535.90217	-159.75223	386.98770	-1584.07228	-215.17722	354.80687	-1741.89595	-246.67083	139.12632	-1749.93185	-177.76224	148.53256	-1768.42127	-213.71556	185.96114	-1710.02802	-211.05310	106.25394	-1732.77125	-73.32057	69.85787	-1591.57039	-73.90835	962.57076	-1653.54668	-33.36764	654.71728	-1722.88003	-109.45671	988.50178	-1708.01117	-134.90557	802.92407	-1737.89565	-116.43601	712.26783	-1717.16133	-183.40883	712.50087	-1579.23501	-284.59045	466.26855	-1725.71113	37.00481	469.73246	-1645.95141	-293.79469	271.30183	-1765.18341	24.32123	230.97959	
153	1.520	-1589.51937	-199.49040	657.42097	-1664.18802	-83.61300	380.38518	-1720.44718	-32.34252	345.41606	-1787.68817	-44.90959	76.92307	-1772.31307	-112.21122	95.77513	-1818.44222	-89.06111	111.65602	-1516.88019	-158.49271	392.68573	-1563.76210	-213.82973	358.55780	-1713.83047	-244.95266	137.74414	-1722.43184	-176.00454	146.96757	-1742.27544	-212.12665	183.48186	-1680.54381	-209.14921	106.58394	-1732.12578	-72.49976	70.02158	-1581.16246	-74.42863	962.09063	-1646.14597	-32.30006	655.00023	-1712.38137	-109.10145	989.17094	-1699.48210	-134.52247	803.23673	-1729.51203	-116.90536	712.02710	-1708.14575	-183.49893	712.03255	-1563.07790	-283.42707	469.97512	-1721.87780	37.73635	470.35772	-1622.49956	-292.33668	272.81854	-1764.30891	25.15174	231.58996	
154	1.530	-1579.97455	-197.97364	657.23021	-1660.75311	-82.05408	379.66898	-1717.98458	-31.16419	345.78312	-1787.16942	-44.01805	77.45602	-1771.34858	-111.19839	96.55720	-1817.43096	-88.11660	112.69880	-1498.38184	-157.12149	398.20823	-1543.83400	-212.30755	362.11563	-1685.23988	-242.97189	136.05934	-1694.47012	-173.99961	145.06771	-1715.66387	-210.34595	180.56236	-1650.64968	-206.91538	106.66539	-1731.45242	-71.51212	70.12367	-1570.60140	-75.00881	961.14445	-1638.52114	-31.36858	655.08271	-1701.74080	-108.78910	989.45026	-1690.91080	-134.30036	803.21146	-1721.08001	-117.43356	711.42590	-1699.18660	-183.68168	711.09238	-1547.28813	-282.19627	473.27800	-1717.57723	38.57643	470.87712	-1598.99953	-290.69466	274.07421	-1763.03701	26.21613	232.12010	
155	1.540	-1570.45689	-196.68130	656.61709	-1657.09318	-80.49767	378.83034	-1715.18810	-29.87894	346.07655	-1786.59111	-42.91367	77.91923	-1770.44408	-109.97086	97.29141	-1816.42275	-86.88039	113.70719	-1480.53660	-155.54407	403.45774	-1524.39955	-210.54071	365.40334	-1656.23029	-240.74505	134.11305	-1666.18677	-171.77966	142.84420	-1688.69507	-208.41209	177.23084	-1620.47879	-204.36448	106.51178	-1730.76503	-70.40639	70.17411	-1559.88297	-75.66234	959.77882	-1630.60818	-30.56247	654.98576	-1690.94937	-108.56908	989.35644	-1682.25297	-134.24712	802.86830	-1712.54382	-117.98795	710.49397	-1690.23798	-183.93167	709.70607	-1531.92022	-280.84687	476.09874	-1712.75733	39.52496	471.27908	-1575.51885	-288.82730	275.06887	-1761.41906	27.46602	232.57740	
